<?xml version="1.0" standalone="no"?>
<!DOCTYPE svg PUBLIC "-//W3C//DTD SVG 20010904//EN"
 "http://www.w3.org/TR/2001/REC-SVG-20010904/DTD/svg10.dtd">
<svg version="1.0" xmlns="http://www.w3.org/2000/svg"
 width="635.000000pt" height="635.000000pt" viewBox="0 0 635.000000 635.000000"
 preserveAspectRatio="xMidYMid meet">
<metadata>
Created by potrace 1.14, written by Peter Selinger 2001-2017
</metadata>
<g transform="translate(0.000000,635.000000) scale(0.100000,-0.100000)"
fill="#000000" stroke="none">
<path d="M0 3180 l0 -3110 3175 0 3175 0 0 3110 0 3110 -3175 0 -3175 0 0
-3110z m5020 2642 c13 -11 23 -29 23 -45 0 -34 -11 -45 -492 -532 -616 -623
-673 -683 -669 -698 1 -9 36 -50 77 -92 l73 -75 102 107 c55 60 290 299 521
533 232 234 456 462 500 508 67 70 83 82 112 82 40 0 73 -30 73 -66 0 -35 -88
-128 -864 -912 l-338 -342 78 -83 c43 -45 81 -83 84 -84 3 -1 20 17 38 40 19
23 242 253 495 511 254 259 507 516 562 573 91 94 104 103 137 103 43 0 68
-27 68 -73 0 -24 -31 -60 -172 -205 -95 -97 -249 -256 -343 -352 -94 -96 -263
-269 -377 -385 -236 -241 -287 -296 -287 -310 0 -5 32 -46 73 -89 l73 -80 189
195 c448 460 766 787 859 886 108 114 148 140 189 122 14 -7 30 -24 36 -40 10
-24 9 -33 -7 -59 -17 -26 -291 -311 -863 -895 -97 -99 -202 -208 -235 -243
l-58 -62 67 -69 c59 -62 66 -73 60 -98 -9 -38 -33 -61 -70 -69 -29 -5 -37 0
-98 63 l-67 68 -91 -95 c-175 -182 -905 -926 -1153 -1176 -248 -249 -309 -300
-326 -272 -5 7 -7 19 -4 26 3 7 0 10 -5 7 -6 -4 -10 -12 -9 -18 2 -23 -14 -57
-27 -57 -9 0 -14 11 -14 31 0 17 -4 28 -10 24 -5 -3 -10 -2 -10 4 0 32 32 75
133 179 231 239 530 546 798 817 468 475 604 616 604 628 0 7 -35 46 -78 87
l-79 74 -91 -94 c-457 -471 -1542 -1558 -1550 -1553 -5 3 -7 2 -4 -4 7 -12
-41 -58 -71 -67 -11 -4 -19 -14 -18 -23 0 -10 -12 -23 -29 -32 -16 -8 -31 -18
-33 -23 -2 -4 -10 -8 -17 -8 -9 0 -11 -8 -7 -22 3 -13 1 -19 -5 -15 -10 6 -96
-67 -88 -75 3 -3 -2 -5 -10 -5 -8 0 -15 5 -15 10 0 5 -6 4 -14 -2 -11 -10 -19
-7 -35 10 -12 13 -21 31 -21 42 0 11 49 70 117 139 206 209 301 306 603 613
920 935 1171 1196 1168 1210 -2 7 -36 48 -77 91 l-73 78 -36 -39 c-53 -59
-951 -974 -1391 -1417 -212 -213 -389 -384 -394 -381 -6 3 -7 2 -4 -4 4 -6 -5
-21 -18 -33 -14 -13 -25 -18 -25 -12 0 7 5 12 12 12 6 0 8 3 5 6 -10 10 -39
-18 -33 -32 5 -13 -42 -50 -52 -40 -3 3 1 6 8 6 7 0 11 3 8 6 -4 3 -15 1 -27
-5 -16 -9 -24 -7 -41 11 -48 52 -45 55 298 402 681 687 1178 1190 1379 1396
l211 215 -85 85 -85 84 -192 -195 c-105 -107 -269 -276 -365 -374 -557 -573
-1135 -1154 -1144 -1148 -6 3 -7 2 -4 -4 4 -6 -31 -47 -77 -92 -64 -62 -90
-81 -111 -81 -65 0 -85 65 -37 122 43 52 437 457 1157 1188 171 173 390 396
488 495 159 163 194 205 169 205 -5 0 -36 28 -70 62 -69 70 -79 104 -40 145
39 41 71 31 152 -47 l73 -70 436 437 c240 241 496 501 569 577 172 180 206
200 258 158z m-1806 -96 c58 -29 78 -68 74 -146 -4 -77 -31 -124 -86 -147 -19
-8 -108 -21 -198 -28 -241 -21 -434 -73 -659 -179 -251 -119 -420 -250 -612
-475 -243 -285 -400 -700 -415 -1096 -14 -390 27 -648 142 -880 133 -272 294
-497 516 -721 254 -256 557 -459 874 -585 239 -95 352 -119 590 -126 671 -20
1204 212 1631 712 161 188 319 526 370 790 17 86 39 278 39 337 0 31 5 81 11
110 25 121 152 183 253 125 80 -45 95 -91 96 -285 1 -516 -98 -916 -336 -1354
-31 -57 -86 -143 -123 -193 -36 -49 -75 -103 -85 -120 -89 -142 -486 -534
-509 -503 -6 9 -7 8 -3 -5 4 -12 -2 -21 -19 -29 -14 -6 -25 -14 -25 -18 0 -10
-53 -47 -80 -54 -19 -6 -21 -5 -10 3 12 9 11 11 -7 11 -25 0 -39 -16 -21 -24
7 -3 1 -3 -14 0 -17 4 -28 2 -28 -5 0 -6 -7 -11 -17 -11 -14 0 -14 2 3 23 l18
22 -22 -20 c-15 -14 -20 -27 -15 -43 4 -18 8 -20 14 -10 6 9 9 9 9 1 0 -7 -9
-17 -20 -23 -16 -8 -18 -8 -14 4 3 8 0 17 -5 21 -6 3 -9 11 -6 16 4 5 -1 9 -9
9 -12 0 -16 10 -16 40 0 30 -4 40 -16 40 -9 0 -18 -9 -21 -20 -4 -14 -14 -20
-32 -20 -25 0 -27 3 -23 31 l5 32 -31 -33 c-18 -18 -29 -37 -25 -43 4 -6 1 -7
-7 -2 -10 6 -12 4 -7 -8 5 -14 -1 -17 -38 -17 -25 0 -45 5 -45 10 0 7 -7 7
-20 0 -11 -5 -29 -15 -40 -20 -21 -10 -24 -5 -21 30 1 13 0 13 -11 0 -8 -9
-25 -14 -42 -12 -20 3 -26 0 -21 -8 6 -9 -16 -10 -91 -5 -55 4 -103 11 -109
15 -5 4 -19 5 -30 3 -11 -2 -28 -4 -38 -4 -10 0 -29 -4 -43 -9 -26 -10 -24
-36 4 -43 12 -3 11 -5 -5 -6 -14 -1 -24 6 -28 19 -3 11 -10 20 -15 20 -5 0 -7
-6 -4 -14 3 -8 0 -17 -6 -21 -8 -5 -8 -10 0 -20 9 -10 7 -13 -7 -11 -10 2 -21
-1 -24 -7 -4 -5 -10 0 -14 12 -4 15 -12 20 -22 17 -10 -4 -13 -2 -10 7 3 7 -3
13 -12 14 -12 1 -17 -6 -16 -24 0 -23 -4 -26 -45 -27 -25 -1 -54 3 -65 9 -19
11 -76 12 -120 1 -11 -2 -23 -5 -27 -5 -5 -1 -8 -8 -8 -16 0 -20 -15 -19 -35
2 -14 14 -18 14 -26 2 -5 -8 -9 -17 -9 -21 0 -5 -7 -8 -16 -8 -8 0 -12 -5 -9
-11 4 -6 13 -8 20 -5 8 3 16 0 18 -7 2 -7 8 -8 13 -3 5 5 4 11 -3 13 -15 5
-17 33 -3 33 6 0 11 -6 11 -12 1 -7 3 -23 4 -35 1 -12 -2 -20 -7 -17 -5 3 -15
0 -23 -6 -8 -7 -16 -10 -16 -6 -1 3 -3 11 -4 16 -1 6 -3 13 -4 16 0 4 -8 1
-16 -6 -12 -10 -16 -9 -21 4 -4 9 -4 20 0 23 3 4 6 -1 6 -11 0 -9 4 -15 10
-11 13 8 1 35 -16 35 -20 0 -17 18 4 24 13 4 12 4 -3 3 -12 -2 -19 -10 -19
-20 1 -12 -6 -17 -22 -17 -15 0 -24 6 -24 15 0 8 -6 15 -14 15 -8 0 -21 3 -30
6 -12 4 -16 0 -17 -17 -2 -24 -2 -24 -6 -2 -4 21 -10 23 -76 24 -75 1 -97 3
-184 13 -29 3 -53 2 -53 -2 0 -4 -9 -8 -21 -9 -14 -1 -19 3 -15 13 3 8 1 14
-4 14 -6 0 -10 -7 -10 -15 0 -8 -4 -15 -9 -15 -5 0 -8 8 -7 17 1 16 -18 23
-100 37 -17 3 -57 12 -89 20 -31 9 -62 13 -66 10 -5 -3 -9 0 -9 5 0 6 -5 11
-11 11 -5 0 -7 -5 -3 -12 4 -7 3 -8 -4 -4 -7 4 -12 3 -12 -3 0 -5 5 -13 10
-16 6 -4 8 -11 4 -16 -8 -13 -26 0 -18 14 3 7 -1 4 -9 -5 -19 -23 -27 -23 -27
2 0 11 -5 20 -12 20 -6 0 -9 3 -6 6 4 3 16 1 27 -6 26 -13 27 1 2 24 -15 13
-66 34 -101 41 -3 0 -39 14 -80 30 -41 16 -78 28 -82 27 -5 -1 -8 3 -8 9 0 6
-9 9 -20 6 -11 -3 -18 -2 -15 2 6 11 -42 32 -59 25 -8 -3 -17 -1 -21 5 -4 7 1
9 12 5 10 -3 -11 10 -47 29 -36 19 -80 43 -99 55 -18 11 -39 18 -46 16 -6 -3
-18 3 -26 12 -12 15 -12 17 0 9 10 -5 12 -4 7 3 -4 7 -12 12 -17 12 -6 0 -17
7 -26 15 -8 8 -18 13 -23 10 -4 -3 -10 2 -14 10 -3 8 -10 15 -15 15 -6 0 -8
-6 -5 -14 3 -8 1 -17 -4 -20 -5 -3 -8 6 -6 19 3 29 -14 44 -28 24 -8 -11 -9
-10 -5 3 3 9 -2 22 -11 30 -8 7 -13 8 -9 2 3 -6 0 -11 -7 -11 -8 0 -12 6 -9
14 4 9 0 11 -13 6 -11 -4 -15 -3 -11 4 4 6 -2 18 -13 28 -11 10 -20 15 -20 12
0 -3 -12 6 -27 21 -16 16 -28 22 -30 15 -5 -14 -33 -6 -33 9 0 5 5 6 10 3 6
-3 10 -2 10 4 0 13 -49 51 -67 51 -8 0 -12 4 -9 9 7 11 -18 33 -27 24 -4 -3
-7 -1 -7 5 0 7 -9 21 -20 32 l-20 20 0 -20 c0 -11 -5 -20 -11 -20 -7 0 -9 10
-5 25 4 15 2 25 -4 25 -6 0 -8 -5 -4 -12 5 -8 -4 -9 -32 -5 -21 4 -60 7 -86 7
-50 0 -68 19 -20 21 l27 2 -28 4 c-24 4 -27 9 -27 43 0 35 -2 38 -35 44 -44 9
-54 2 -48 -27 4 -21 4 -21 -12 3 l-16 25 6 -25 c5 -24 5 -24 -10 3 -9 16 -14
35 -11 43 3 9 1 12 -4 9 -6 -3 -10 5 -10 19 0 14 -4 26 -10 26 -13 0 -13 -21
0 -54 5 -14 6 -27 2 -30 -4 -3 -8 3 -9 12 -1 9 -6 29 -12 44 -8 23 -16 27 -38
24 -15 -2 -20 -1 -9 1 15 4 17 11 13 40 -4 20 -3 33 0 30 3 -4 14 -2 24 4 11
5 19 6 19 2 0 -4 4 -14 9 -22 8 -12 12 -12 25 2 9 9 12 18 7 21 -5 4 -12 0
-14 -6 -9 -21 -28 13 -24 40 2 12 0 22 -4 22 -5 0 -8 6 -6 13 1 6 -4 12 -12
12 -8 0 -16 -13 -18 -30 -5 -40 -12 -59 -20 -52 -3 4 -12 2 -20 -4 -10 -9 -13
-8 -13 1 0 7 -6 10 -14 7 -10 -4 -16 7 -21 39 -4 28 -11 44 -21 44 -8 0 -14 9
-14 21 0 11 -4 17 -10 14 -5 -3 -10 -2 -10 4 0 6 -12 9 -27 7 -16 -2 -20 -1
-10 1 24 6 21 21 -5 26 -23 4 -23 4 -1 6 12 0 28 -6 37 -14 17 -17 26 -19 26
-6 0 5 -9 13 -20 16 -24 8 -25 27 -3 63 15 24 13 23 -14 -5 -38 -42 -46 -41
-41 2 4 31 2 35 -16 33 -21 -3 -23 0 -25 55 0 16 -5 26 -9 23 -14 -9 -103 16
-109 30 -3 8 -14 14 -24 14 -17 0 -17 -2 3 -37 19 -33 20 -36 4 -23 -18 14
-18 13 -12 -10 6 -21 5 -22 -4 -7 -6 9 -8 22 -5 27 3 6 0 12 -7 15 -7 3 -14
16 -14 30 -1 14 -5 33 -9 43 -5 9 -10 26 -12 36 -2 11 -8 25 -14 32 -6 7 -7
19 -3 25 4 8 3 9 -4 5 -10 -6 -28 41 -38 99 -2 11 -13 53 -24 93 -11 40 -23
91 -25 114 -3 22 -8 44 -10 48 -3 4 -7 39 -10 76 -4 38 -10 102 -16 142 -19
150 -5 503 27 657 8 39 16 84 18 101 3 17 14 66 26 110 11 43 23 89 26 101 11
55 90 266 130 351 24 51 44 94 44 96 0 15 145 249 207 334 83 114 275 342 382
456 147 154 435 358 661 468 233 113 423 174 680 217 171 29 170 29 385 27
166 -1 195 -3 229 -20z m-294 -3566 c0 -5 -5 -10 -11 -10 -5 0 -7 5 -4 10 3 6
8 10 11 10 2 0 4 -4 4 -10z m-40 -44 c0 -2 -7 -7 -16 -10 -8 -3 -12 -2 -9 4 6
10 25 14 25 6z m-46 -59 c-3 -9 -12 -13 -21 -10 -12 5 -14 3 -8 -8 4 -8 5 -11
0 -7 -4 4 -15 3 -24 -3 -9 -6 -1 3 18 20 36 32 45 34 35 8z m66 13 c0 -5 -10
-10 -22 -10 -19 0 -20 2 -8 10 19 13 30 13 30 0z m-2132 -110 c-2 -6 -8 -6
-18 0 -13 9 -13 11 0 20 15 10 25 0 18 -20z m1932 -25 c-6 -8 -9 -18 -6 -24 8
-13 -4 -41 -17 -41 -7 0 -7 4 1 12 23 23 12 29 -15 8 -23 -16 -28 -27 -27 -61
0 -35 -1 -39 -12 -25 -18 25 -6 56 39 104 40 40 62 58 37 27z m40 -9 c0 -3 -4
-8 -10 -11 -5 -3 -10 -1 -10 4 0 6 5 11 10 11 6 0 10 -2 10 -4z m67 -41 c0 -8
-4 -12 -9 -9 -5 3 -6 10 -3 15 9 13 12 11 12 -6z m-150 -52 c-3 -10 -5 -4 -5
12 0 17 2 24 5 18 2 -7 2 -21 0 -30z m125 25 c-14 -14 -44 -20 -36 -7 3 5 9 7
14 4 5 -3 11 -1 15 5 3 5 9 10 13 10 3 0 1 -5 -6 -12z m-22 -38 c0 -5 -5 -10
-11 -10 -5 0 -7 5 -4 10 3 6 8 10 11 10 2 0 4 -4 4 -10z m-1803 -102 c-3 -8
-6 -5 -6 6 -1 11 2 17 5 13 3 -3 4 -12 1 -19z m-32 2 c3 -5 2 -10 -4 -10 -5 0
-13 5 -16 10 -3 6 -2 10 4 10 5 0 13 -4 16 -10z m72 -122 c-3 -7 -5 -2 -5 12
0 14 2 19 5 13 2 -7 2 -19 0 -25z m-101 -61 c4 -4 0 -7 -9 -7 -9 0 -18 4 -21
9 -7 10 20 9 30 -2z m307 -101 c4 -10 1 -13 -9 -9 -15 6 -19 23 -5 23 5 0 11
-7 14 -14z m227 -24 c0 -2 -6 -10 -14 -17 -12 -12 -16 -12 -25 -1 -6 7 -8 15
-5 19 6 6 44 5 44 -1z m65 -52 c3 -5 1 -10 -4 -10 -6 0 -11 5 -11 10 0 6 2 10
4 10 3 0 8 -4 11 -10z m-158 -6 c-3 -3 -12 -4 -19 -1 -8 3 -5 6 6 6 11 1 17
-2 13 -5z m539 -281 c-7 -7 -26 7 -26 19 0 6 6 6 15 -2 9 -7 13 -15 11 -17z
m71 -75 c-3 -7 -5 -2 -5 12 0 14 2 19 5 13 2 -7 2 -19 0 -25z m30 0 c-3 -7 -5
-2 -5 12 0 14 2 19 5 13 2 -7 2 -19 0 -25z m-84 -25 c-7 -2 -19 -2 -25 0 -7 3
-2 5 12 5 14 0 19 -2 13 -5z m184 -55 c-3 -7 -5 -2 -5 12 0 14 2 19 5 13 2 -7
2 -19 0 -25z m-157 2 c0 -5 -2 -10 -4 -10 -3 0 -8 5 -11 10 -3 6 -1 10 4 10 6
0 11 -4 11 -10z m260 -30 c-5 -22 -8 -27 -9 -13 -1 21 9 56 14 51 2 -2 0 -19
-5 -38z m-30 -1 c0 -11 -4 -18 -10 -14 -5 3 -7 12 -3 20 7 21 13 19 13 -6z
m99 -5 c-6 -7 -15 -11 -21 -8 -5 3 -4 12 3 20 6 7 15 11 21 8 5 -3 4 -12 -3
-20z m-236 -1 c-7 -2 -19 -2 -25 0 -7 3 -2 5 12 5 14 0 19 -2 13 -5z m277 -3
c0 -5 -4 -10 -10 -10 -5 0 -10 5 -10 10 0 6 5 10 10 10 6 0 10 -4 10 -10z
m-406 -18 c3 -5 -1 -9 -9 -9 -8 0 -12 4 -9 9 3 4 7 8 9 8 2 0 6 -4 9 -8z m286
-37 c14 -19 14 -19 -2 -6 -10 7 -18 18 -18 24 0 6 1 8 3 6 1 -2 9 -13 17 -24z
m1963 -10 c4 -8 3 -16 -1 -19 -4 -3 -9 4 -9 15 -2 23 3 25 10 4z m-2068 -26
c-4 -5 -16 -8 -28 -8 -17 1 -18 2 -4 6 9 2 17 9 17 14 0 6 5 7 10 4 6 -4 8
-11 5 -16z m473 -14 c-6 -14 -13 -23 -15 -21 -5 5 15 46 22 46 3 0 -1 -11 -7
-25z m1232 -20 c0 -5 -5 -3 -10 5 -5 8 -10 20 -10 25 0 6 5 3 10 -5 5 -8 10
-19 10 -25z m164 24 c4 6 22 11 39 11 24 0 28 -3 17 -10 -8 -5 -26 -10 -39
-10 -16 0 -21 -4 -17 -15 4 -11 -2 -15 -22 -14 -17 1 -20 3 -9 6 9 2 17 9 17
14 0 6 -4 7 -10 4 -6 -3 -7 1 -3 10 4 12 8 13 13 5 5 -9 9 -9 14 -1z m322 -15
c-4 -9 -9 -15 -11 -12 -3 3 -3 13 1 22 4 9 9 15 11 12 3 -3 3 -13 -1 -22z
m-433 -1 c-7 -2 -21 -2 -30 0 -10 3 -4 5 12 5 17 0 24 -2 18 -5z m-977 -21
c-10 -2 -22 0 -28 6 -6 6 0 7 19 4 21 -5 23 -7 9 -10z m-386 -2 c0 -5 -2 -10
-4 -10 -3 0 -8 5 -11 10 -3 6 -1 10 4 10 6 0 11 -4 11 -10z m430 -10 c0 -11
-4 -20 -10 -20 -5 0 -10 9 -10 20 0 11 5 20 10 20 6 0 10 -9 10 -20z m567 0
c1 -11 -4 -17 -14 -16 -22 3 -25 32 -4 33 10 1 17 -6 18 -17z m423 5 c0 -8 -4
-15 -8 -15 -5 0 -9 7 -9 15 0 8 4 15 9 15 4 0 8 -7 8 -15z m-1027 -22 c-7 -2
-19 -2 -25 0 -7 3 -2 5 12 5 14 0 19 -2 13 -5z m563 -14 c10 -17 -13 -36 -27
-22 -12 12 -4 33 11 33 5 0 12 -5 16 -11z m70 -9 c0 -12 -4 -16 -9 -11 -5 5
-6 14 -3 20 10 15 12 14 12 -9z m-626 0 c0 -5 -7 -10 -15 -10 -8 0 -15 5 -15
10 0 6 7 10 15 10 8 0 15 -4 15 -10z m362 -9 c4 -3 -12 -5 -35 -3 -23 2 -45 7
-49 11 -4 3 12 5 35 3 23 -2 45 -7 49 -11z m308 5 c-7 -7 -13 -7 -20 0 -6 6
-3 10 10 10 13 0 16 -4 10 -10z m-84 -36 c0 -12 -4 -16 -9 -11 -5 5 -6 14 -3
20 10 15 12 14 12 -9z m-166 -4 c0 -3 -4 -8 -10 -11 -5 -3 -10 -1 -10 4 0 6 5
11 10 11 6 0 10 -2 10 -4z m-30 -12 c0 -8 -19 -13 -24 -6 -3 5 1 9 9 9 8 0 15
-2 15 -3z m-13 -46 c-3 -8 -6 -5 -6 6 -1 11 2 17 5 13 3 -3 4 -12 1 -19z"/>
<path d="M2228 2383 c7 -3 16 -2 19 1 4 3 -2 6 -13 5 -11 0 -14 -3 -6 -6z"/>
<path d="M3080 2319 c0 -5 5 -7 10 -4 6 3 10 8 10 11 0 2 -4 4 -10 4 -5 0 -10
-5 -10 -11z"/>
<path d="M562 2181 c-11 -7 -11 -9 0 -14 9 -3 15 1 15 9 0 8 -1 14 -1 14 -1 0
-7 -4 -14 -9z"/>
<path d="M740 2170 c0 -11 4 -20 8 -20 4 0 8 9 8 20 0 11 -4 20 -8 20 -4 0 -8
-9 -8 -20z"/>
<path d="M764 2179 c-3 -6 -1 -16 5 -22 8 -8 11 -5 11 11 0 24 -5 28 -16 11z"/>
<path d="M733 2133 c9 -2 25 -2 35 0 9 3 1 5 -18 5 -19 0 -27 -2 -17 -5z"/>
<path d="M735 2110 c-3 -5 1 -10 9 -10 9 0 16 5 16 10 0 6 -4 10 -9 10 -6 0
-13 -4 -16 -10z"/>
<path d="M680 2100 c-23 -7 -23 -8 -3 -9 12 -1 25 4 28 9 3 6 5 10 3 9 -2 -1
-14 -5 -28 -9z"/>
<path d="M834 2099 c-3 -6 -2 -15 3 -20 5 -5 9 -1 9 11 0 23 -2 24 -12 9z"/>
<path d="M755 2019 c-11 -16 -1 -19 13 -3 7 8 8 14 3 14 -5 0 -13 -5 -16 -11z"/>
<path d="M872 2010 c0 -14 2 -19 5 -12 2 6 2 18 0 25 -3 6 -5 1 -5 -13z"/>
<path d="M946 2002 c-3 -5 1 -9 9 -9 8 0 12 4 9 9 -3 4 -7 8 -9 8 -2 0 -6 -4
-9 -8z"/>
<path d="M854 1968 c-3 -5 -3 -12 0 -15 3 -4 6 -2 6 4 0 6 12 9 26 7 14 -1 23
0 20 4 -10 9 -46 10 -52 0z"/>
<path d="M980 1950 c0 -5 5 -10 11 -10 5 0 7 5 4 10 -3 6 -8 10 -11 10 -2 0
-4 -4 -4 -10z"/>
<path d="M993 1883 c9 -2 23 -2 30 0 6 3 -1 5 -18 5 -16 0 -22 -2 -12 -5z"/>
<path d="M1037 1863 c-14 -13 -6 -40 16 -59 l22 -19 -19 22 c-11 13 -16 31
-13 43 5 21 4 24 -6 13z"/>
<path d="M1070 1816 c0 -2 8 -10 18 -17 15 -13 16 -12 3 4 -13 16 -21 21 -21
13z"/>
<path d="M900 1800 c0 -5 9 -10 20 -10 11 0 20 5 20 10 0 6 -9 10 -20 10 -11
0 -20 -4 -20 -10z"/>
<path d="M995 1720 c3 -5 10 -10 16 -10 5 0 9 5 9 10 0 6 -7 10 -16 10 -8 0
-12 -4 -9 -10z"/>
<path d="M1160 1687 c0 -8 7 -14 15 -14 11 0 12 4 4 14 -6 7 -13 13 -15 13 -2
0 -4 -6 -4 -13z"/>
<path d="M1183 1647 c0 -8 6 -14 14 -14 9 0 10 4 2 14 -6 7 -12 13 -14 13 -1
0 -2 -6 -2 -13z"/>
<path d="M1300 1531 c0 -5 5 -13 10 -16 6 -3 10 -2 10 4 0 5 -4 13 -10 16 -5
3 -10 2 -10 -4z"/>
<path d="M4100 915 c-19 -22 -8 -25 13 -3 9 10 13 18 8 18 -5 0 -14 -7 -21
-15z"/>
<path d="M4428 923 c6 -2 18 -2 25 0 6 3 1 5 -13 5 -14 0 -19 -2 -12 -5z"/>
<path d="M4320 905 c0 -5 5 -17 10 -25 5 -8 10 -10 10 -5 0 6 -5 17 -10 25 -5
8 -10 11 -10 5z"/>
<path d="M4195 891 c-3 -5 -2 -12 3 -15 5 -3 9 1 9 9 0 17 -3 19 -12 6z"/>
<path d="M4231 893 c0 -6 -4 -20 -7 -30 -5 -14 -4 -15 5 -7 7 7 11 20 8 30 -3
11 -5 14 -6 7z"/>
<path d="M4680 885 c-8 -9 -8 -15 -2 -15 12 0 26 19 19 26 -2 2 -10 -2 -17
-11z"/>
<path d="M4035 880 c-3 -5 -1 -10 4 -10 6 0 11 5 11 10 0 6 -2 10 -4 10 -3 0
-8 -4 -11 -10z"/>
<path d="M4120 870 c-23 -8 -23 -8 7 -7 17 1 29 5 27 9 -3 4 -6 8 -7 7 -1 -1
-13 -5 -27 -9z"/>
<path d="M3995 861 c-6 -11 9 -23 19 -14 9 9 7 23 -3 23 -6 0 -12 -4 -16 -9z"/>
<path d="M2425 850 c3 -5 8 -10 11 -10 2 0 4 5 4 10 0 6 -5 10 -11 10 -5 0 -7
-4 -4 -10z"/>
<path d="M3684 798 c-4 -7 -3 -8 4 -4 10 6 16 -4 14 -25 -1 -3 5 -6 12 -6 6 0
13 10 14 21 1 17 -1 18 -8 6 -8 -13 -10 -12 -10 3 0 19 -15 23 -26 5z"/>
<path d="M3390 690 c0 -5 5 -10 10 -10 6 0 10 5 10 10 0 6 -4 10 -10 10 -5 0
-10 -4 -10 -10z"/>
</g>
</svg>
